# xmcd
#
# Track frame offsets: 
#        150
#        14212
#        27840
#        43838
#        58124
#        69141
#        85650
#        98344
#        114753
#        129091
#        146792
#        164568
#        178574
#        192904
#        206981
#
# Disc length: 2961 seconds
#
# Revision: 0
# Processed by: cddbd v1.5.2PL0 Copyright (c) Steve Scherf et al.
# Submitted via: ExactAudioCopyFreeDBPlugin 1.0
#
DISCID=ca0b8f0f
DTITLE=Randy Travis - On The Other Hand: All The Numb
DYEAR=2015
DGENRE=Country
TTITLE0=On The Other Hand
TTITLE1=Diggin' Up Bones
TTITLE2=Forever And Ever. Amen
TTITLE3=I Won't Need You Anymore
TTITLE4=To Gone, To Long
TTITLE5=I Told You So
TTITLE6=Honky Tonk Moon
TTITLE7=Deeper Than The Holler
TTITLE8=Is It Still Over?
TTITLE9=It's Just A Matter Of Time
TTITLE10=Hard Rock Bottom Of Your Heart
TTITLE11=If I Didn't Have You
TTITLE12=Look Heart, No Hands
TTITLE13=Whisper My Name
TTITLE14=Three Wooden Crosses
EXTD=
EXTT0=
EXTT1=
EXTT2=
EXTT3=
EXTT4=
EXTT5=
EXTT6=
EXTT7=
EXTT8=
EXTT9=
EXTT10=
EXTT11=
EXTT12=
EXTT13=
EXTT14=
PLAYORDER=
